# xmcd
#
# Track frame offsets: 
#        150
#        15296
#        28221
#        40183
#        50546
#        61977
#        71632
#        85508
#        98214
#        107522
#        119229
#        128743
#        141996
#        152305
#
# Disc length: 2187 seconds
#
# Revision: 1
# Processed by: cddbd v1.5.2PL0 Copyright (c) Steve Scherf et al.
# Submitted via: ExactAudioCopy v0.95b4
#
DISCID=b508890e
DTITLE=Various Artist - Greatest Country Hits - CD 3
DYEAR=2008
DGENRE=Country
TTITLE0=Billie Jo Spears - Blanket on the ground
TTITLE1=Charlie Rich - The most beautiful girl
TTITLE2=Lynn Anderson - Rose garden
TTITLE3=Dave Dudley - Six days on the road
TTITLE4=Don Gibson - Oh, lonesome me
TTITLE5=Billy Swan - I can help
TTITLE6=Juice Newton - Listen to the radio
TTITLE7=The Oak Ridge Boys - Thank god i'm reborn
TTITLE8=Ronnie Hawkins - Hey good lookin'
TTITLE9=Troy Shondell - This time
TTITLE10=Dolly Parton - Release me
TTITLE11=Tennessee - Train to Santa Fe
TTITLE12=Mel McDaniel - Lousiana saturday night
TTITLE13=Skeeter Davis - The end of the world
EXTD=
EXTT0=
EXTT1=
EXTT2=
EXTT3=
EXTT4=
EXTT5=
EXTT6=
EXTT7=
EXTT8=
EXTT9=
EXTT10=
EXTT11=
EXTT12=
EXTT13=
PLAYORDER=
